<svg viewBox="0 0 200 200" xmlns="http://www.w3.org/2000/svg" role="img" aria-label="Astronaut avatar">
  <defs>
    <radialGradient id="bg4" cx="34%" cy="26%" r="92%"><stop offset="0" stop-color="#45a8e6"/><stop offset="1" stop-color="#3a4fa8"/></radialGradient>
    <linearGradient id="hl4" x1="0" y1="0" x2="1" y2="1"><stop offset="0" stop-color="#ffffff"/><stop offset="1" stop-color="#cfe8ff"/></linearGradient>
  </defs>
  <rect width="200" height="200" rx="44" fill="url(#bg4)"/>
  <circle cx="58" cy="52" r="30" fill="#ffffff" opacity="0.15"/>
  <path d="M100 50 c34 0 56 24 56 58 c0 8 -2 16 -6 22 l-100 0 c-4 -6 -6 -14 -6 -22 c0 -34 22 -58 56 -58 Z" fill="url(#hl4)"/>
  <rect x="60" y="92" width="80" height="32" rx="16" fill="#0c1430" opacity="0.82"/>
  <ellipse cx="86" cy="104" rx="10" ry="7" fill="#7cc6ff" opacity="0.85"/>
  <circle cx="120" cy="108" r="5" fill="#56e08a"/>
  <path d="M42 170 c6 -28 30 -42 58 -42 c28 0 52 14 58 42 Z" fill="#cfe8ff"/>
  <circle cx="100" cy="150" r="7" fill="#ff7eb0"/>
  <rect width="200" height="200" rx="44" fill="none" stroke="#ffffff" stroke-opacity="0.35" stroke-width="2"/>
</svg>
