<svg viewBox="0 0 200 200" xmlns="http://www.w3.org/2000/svg" role="img" aria-label="Boy avatar">
  <defs><radialGradient id="bg6" cx="34%" cy="26%" r="92%"><stop offset="0" stop-color="#56e08a"/><stop offset="1" stop-color="#2bd8c6"/></radialGradient></defs>
  <rect width="200" height="200" rx="44" fill="url(#bg6)"/>
  <circle cx="58" cy="52" r="30" fill="#ffffff" opacity="0.15"/>
  <circle cx="100" cy="108" r="42" fill="#f0c29a"/>
  <path d="M58 100 C58 64 80 52 100 52 C120 52 142 64 142 100 C142 86 132 80 122 80 L120 70 L108 80 L104 70 L96 80 L92 70 L80 80 C68 80 58 86 58 100 Z" fill="#3a2a1c"/>
  <circle cx="86" cy="108" r="5" fill="#2a1a14"/><circle cx="114" cy="108" r="5" fill="#2a1a14"/>
  <path d="M86 126 Q100 136 114 126" stroke="#a05a3a" stroke-width="3" fill="none" stroke-linecap="round"/>
  <rect width="200" height="200" rx="44" fill="none" stroke="#ffffff" stroke-opacity="0.35" stroke-width="2"/>
</svg>
