<svg viewBox="0 0 200 200" xmlns="http://www.w3.org/2000/svg" role="img" aria-label="Fox avatar">
  <defs><radialGradient id="bg3" cx="34%" cy="26%" r="92%"><stop offset="0" stop-color="#ffb86b"/><stop offset="1" stop-color="#e8633a"/></radialGradient></defs>
  <rect width="200" height="200" rx="44" fill="url(#bg3)"/>
  <circle cx="58" cy="52" r="30" fill="#ffffff" opacity="0.15"/>
  <path d="M54 66 L66 26 L98 60 Z" fill="#f0763f"/><path d="M146 66 L134 26 L102 60 Z" fill="#f0763f"/>
  <path d="M63 60 L70 40 L84 58 Z" fill="#2a1a14"/><path d="M137 60 L130 40 L116 58 Z" fill="#2a1a14"/>
  <path d="M100 58 C140 58 150 96 140 120 C130 142 116 152 100 152 C84 152 70 142 60 120 C50 96 60 58 100 58 Z" fill="#f0763f"/>
  <path d="M100 96 C118 96 128 118 120 134 C113 147 106 152 100 152 C94 152 87 147 80 134 C72 118 82 96 100 96 Z" fill="#fff3ec"/>
  <ellipse cx="80" cy="98" rx="6" ry="9" fill="#2a1a14"/><ellipse cx="120" cy="98" rx="6" ry="9" fill="#2a1a14"/>
  <circle cx="100" cy="126" r="8" fill="#2a1a14"/>
  <rect width="200" height="200" rx="44" fill="none" stroke="#ffffff" stroke-opacity="0.35" stroke-width="2"/>
</svg>
