<svg viewBox="0 0 200 200" xmlns="http://www.w3.org/2000/svg" role="img" aria-label="Robot avatar">
  <defs><radialGradient id="bg1" cx="34%" cy="26%" r="92%"><stop offset="0" stop-color="#3ad8e6"/><stop offset="1" stop-color="#7b5bff"/></radialGradient></defs>
  <rect width="200" height="200" rx="44" fill="url(#bg1)"/>
  <circle cx="58" cy="52" r="30" fill="#ffffff" opacity="0.15"/>
  <line x1="100" y1="50" x2="100" y2="33" stroke="#ffffff" stroke-width="5" stroke-linecap="round"/>
  <circle cx="100" cy="29" r="7" fill="#ffd166"/>
  <rect x="50" y="56" width="100" height="86" rx="24" fill="#eef3ff"/>
  <rect x="38" y="86" width="12" height="30" rx="6" fill="#c6d2ef"/>
  <rect x="150" y="86" width="12" height="30" rx="6" fill="#c6d2ef"/>
  <circle cx="80" cy="96" r="12" fill="#0c1430"/><circle cx="80" cy="96" r="5" fill="#3ad8e6"/>
  <circle cx="120" cy="96" r="12" fill="#0c1430"/><circle cx="120" cy="96" r="5" fill="#a18bff"/>
  <rect x="74" y="118" width="52" height="14" rx="7" fill="#0c1430"/>
  <rect x="80" y="122" width="6" height="6" rx="1" fill="#3ad8e6"/><rect x="92" y="122" width="6" height="6" rx="1" fill="#56e08a"/><rect x="104" y="122" width="6" height="6" rx="1" fill="#ffd166"/><rect x="116" y="122" width="6" height="6" rx="1" fill="#ff7eb0"/>
  <rect width="200" height="200" rx="44" fill="none" stroke="#ffffff" stroke-opacity="0.35" stroke-width="2"/>
</svg>
