<svg viewBox="0 0 200 200" xmlns="http://www.w3.org/2000/svg" role="img" aria-label="Cat avatar">
  <defs><radialGradient id="bg2" cx="34%" cy="26%" r="92%"><stop offset="0" stop-color="#ff9ec4"/><stop offset="1" stop-color="#ff7a59"/></radialGradient></defs>
  <rect width="200" height="200" rx="44" fill="url(#bg2)"/>
  <circle cx="58" cy="52" r="30" fill="#ffffff" opacity="0.15"/>
  <path d="M58 72 L70 34 L96 64 Z" fill="#fff3ec"/><path d="M142 72 L130 34 L104 64 Z" fill="#fff3ec"/>
  <path d="M65 66 L73 46 L86 64 Z" fill="#ff7a59"/><path d="M135 66 L127 46 L114 64 Z" fill="#ff7a59"/>
  <circle cx="100" cy="106" r="50" fill="#fff3ec"/>
  <ellipse cx="82" cy="102" rx="7" ry="11" fill="#3a2a2a"/><ellipse cx="118" cy="102" rx="7" ry="11" fill="#3a2a2a"/>
  <circle cx="84" cy="98" r="2.4" fill="#ffffff"/><circle cx="120" cy="98" r="2.4" fill="#ffffff"/>
  <path d="M93 118 L107 118 L100 126 Z" fill="#ff7a59"/>
  <g stroke="#c9a99a" stroke-width="2.4" stroke-linecap="round">
    <line x1="58" y1="112" x2="86" y2="116"/><line x1="58" y1="124" x2="86" y2="122"/>
    <line x1="142" y1="112" x2="114" y2="116"/><line x1="142" y1="124" x2="114" y2="122"/>
  </g>
  <rect width="200" height="200" rx="44" fill="none" stroke="#ffffff" stroke-opacity="0.35" stroke-width="2"/>
</svg>
