<svg viewBox="0 0 600 600" xmlns="http://www.w3.org/2000/svg" preserveAspectRatio="xMidYMid slice" aria-hidden="true">
  <defs>
    <linearGradient id="waveFade" x1="0" y1="0" x2="1" y2="0">
      <stop offset="0" stop-color="#ffffff" stop-opacity="0"/>
      <stop offset="0.55" stop-color="#ffffff" stop-opacity="0.5"/>
      <stop offset="1" stop-color="#ffffff" stop-opacity="0.9"/>
    </linearGradient>
    <linearGradient id="waveFadeV" x1="0" y1="0" x2="0" y2="1">
      <stop offset="0" stop-color="#ffffff" stop-opacity="0"/>
      <stop offset="0.5" stop-color="#ffffff" stop-opacity="1"/>
      <stop offset="1" stop-color="#ffffff" stop-opacity="0"/>
    </linearGradient>
    <mask id="waveMask">
      <rect width="600" height="600" fill="url(#waveFadeV)"/>
    </mask>
  </defs>
  <g stroke="url(#waveFade)" fill="none" stroke-width="1.1" mask="url(#waveMask)" opacity="0.85">
    <path d="M 620 -40 C 460 60, 460 200, 620 300 S 460 540, 620 640"/>
    <path d="M 620 -40 C 430 60, 430 200, 620 300 S 430 540, 620 640" transform="translate(0 0)"/>
    <path d="M 660 -40 C 400 70, 400 210, 660 310 S 400 560, 660 660"/>
    <path d="M 700 -40 C 370 80, 370 220, 700 320 S 370 580, 700 680"/>
    <path d="M 740 -40 C 340 90, 340 230, 740 330 S 340 600, 740 700"/>
    <path d="M 780 -40 C 310 100, 310 240, 780 340 S 310 620, 780 720"/>
    <path d="M 820 -40 C 280 110, 280 250, 820 350 S 280 640, 820 740"/>
    <path d="M 860 -40 C 250 120, 250 260, 860 360 S 250 660, 860 760"/>
    <path d="M 900 -40 C 220 130, 220 270, 900 370 S 220 680, 900 780"/>
    <path d="M 940 -40 C 190 140, 190 280, 940 380 S 190 700, 940 800"/>
  </g>
</svg>
