<svg viewBox="0 0 200 200" xmlns="http://www.w3.org/2000/svg" role="img" aria-label="Girl avatar">
  <defs><radialGradient id="bg5" cx="34%" cy="26%" r="92%"><stop offset="0" stop-color="#c08bff"/><stop offset="1" stop-color="#ff8ec4"/></radialGradient></defs>
  <rect width="200" height="200" rx="44" fill="url(#bg5)"/>
  <circle cx="58" cy="52" r="30" fill="#ffffff" opacity="0.15"/>
  <path d="M100 48 C64 48 50 78 50 114 C50 142 60 160 60 160 L76 160 L76 108 C76 92 86 84 100 84 C114 84 124 92 124 108 L124 160 L140 160 C140 160 150 142 150 114 C150 78 136 48 100 48 Z" fill="#5b3b86"/>
  <circle cx="100" cy="106" r="40" fill="#ffd9c0"/>
  <path d="M62 98 C62 66 80 52 100 52 C120 52 138 66 138 98 C138 84 120 78 100 78 C80 78 62 84 62 98 Z" fill="#6b46a0"/>
  <circle cx="86" cy="106" r="5" fill="#3a2a40"/><circle cx="114" cy="106" r="5" fill="#3a2a40"/>
  <circle cx="78" cy="118" r="5" fill="#ff9eb0" opacity="0.6"/><circle cx="122" cy="118" r="5" fill="#ff9eb0" opacity="0.6"/>
  <path d="M88 124 Q100 134 112 124" stroke="#cc4477" stroke-width="3" fill="none" stroke-linecap="round"/>
  <circle cx="138" cy="74" r="7" fill="#ffd166"/>
  <rect width="200" height="200" rx="44" fill="none" stroke="#ffffff" stroke-opacity="0.35" stroke-width="2"/>
</svg>
