<svg viewBox="0 0 200 200" xmlns="http://www.w3.org/2000/svg" role="img" aria-label="Alien avatar">
  <defs><radialGradient id="bg7" cx="34%" cy="26%" r="92%"><stop offset="0" stop-color="#8be86a"/><stop offset="1" stop-color="#2bd8c6"/></radialGradient></defs>
  <rect width="200" height="200" rx="44" fill="url(#bg7)"/>
  <circle cx="58" cy="52" r="30" fill="#ffffff" opacity="0.15"/>
  <path d="M84 58 C80 42 72 36 64 34" stroke="#3aa86a" stroke-width="5" fill="none" stroke-linecap="round"/>
  <circle cx="62" cy="32" r="6" fill="#e6ff7a"/>
  <path d="M116 58 C120 42 128 36 136 34" stroke="#3aa86a" stroke-width="5" fill="none" stroke-linecap="round"/>
  <circle cx="138" cy="32" r="6" fill="#e6ff7a"/>
  <path d="M100 58 C134 58 150 84 150 110 C150 138 128 156 100 156 C72 156 50 138 50 110 C50 84 66 58 100 58 Z" fill="#a6ee78"/>
  <ellipse cx="80" cy="106" rx="13" ry="20" fill="#0c1430" transform="rotate(-12 80 106)"/>
  <ellipse cx="120" cy="106" rx="13" ry="20" fill="#0c1430" transform="rotate(12 120 106)"/>
  <circle cx="84" cy="100" r="4" fill="#ffffff" opacity="0.85"/><circle cx="116" cy="100" r="4" fill="#ffffff" opacity="0.85"/>
  <path d="M90 138 Q100 144 110 138" stroke="#3a6a2a" stroke-width="3" fill="none" stroke-linecap="round"/>
  <rect width="200" height="200" rx="44" fill="none" stroke="#ffffff" stroke-opacity="0.35" stroke-width="2"/>
</svg>
