<svg viewBox="0 0 200 200" xmlns="http://www.w3.org/2000/svg" role="img" aria-label="Owl avatar">
  <defs><radialGradient id="bgA" cx="34%" cy="26%" r="92%"><stop offset="0" stop-color="#ffd166"/><stop offset="1" stop-color="#f0a23a"/></radialGradient></defs>
  <rect width="200" height="200" rx="44" fill="url(#bgA)"/>
  <circle cx="58" cy="52" r="30" fill="#ffffff" opacity="0.15"/>
  <path d="M60 66 L70 38 L88 62 Z" fill="#8a5a2a"/><path d="M140 66 L130 38 L112 62 Z" fill="#8a5a2a"/>
  <ellipse cx="100" cy="112" rx="52" ry="48" fill="#a9722f"/>
  <ellipse cx="100" cy="122" rx="30" ry="32" fill="#eccfa0"/>
  <circle cx="80" cy="98" r="20" fill="#ffffff"/><circle cx="120" cy="98" r="20" fill="#ffffff"/>
  <circle cx="82" cy="100" r="9" fill="#0c1430"/><circle cx="118" cy="100" r="9" fill="#0c1430"/>
  <circle cx="85" cy="97" r="3" fill="#ffffff"/><circle cx="121" cy="97" r="3" fill="#ffffff"/>
  <path d="M93 112 L107 112 L100 124 Z" fill="#ffb02e"/>
  <path d="M52 94 A50 50 0 0 1 148 94" stroke="#5b3b86" stroke-width="6" fill="none"/>
  <rect x="38" y="90" width="16" height="30" rx="7" fill="#6b46a0"/><rect x="146" y="90" width="16" height="30" rx="7" fill="#6b46a0"/>
  <rect width="200" height="200" rx="44" fill="none" stroke="#ffffff" stroke-opacity="0.35" stroke-width="2"/>
</svg>
